<mxfile host="app.diagrams.net" modified="2020-04-05T23:24:28.333Z" agent="5.0 (Windows NT 10.0; Win64; x64) AppleWebKit/537.36 (KHTML, like Gecko) Chrome/80.0.3987.132 Safari/537.36" etag="_pLNuyttlHxVDfMYDFX3" version="12.9.8" type="github" pages="2">
  <diagram id="fPNS6R41uXTzUYEoK_hJ" name="High-Level Use Case">
    <mxGraphModel dx="751" dy="403" grid="1" gridSize="10" guides="1" tooltips="1" connect="1" arrows="1" fold="1" page="1" pageScale="1" pageWidth="850" pageHeight="1100" math="0" shadow="0">
      <root>
        <mxCell id="0" />
        <mxCell id="1" parent="0" />
        <mxCell id="k9ZQSCsvZ8l_SCIMkzeH-1" value="&lt;b&gt;&lt;font style=&quot;font-size: 30px&quot;&gt;High-Level Use Case&lt;/font&gt;&lt;/b&gt;" style="text;html=1;align=center;verticalAlign=middle;resizable=0;points=[];autosize=1;fontSize=20;" parent="1" vertex="1">
          <mxGeometry x="264.5" y="30" width="310" height="30" as="geometry" />
        </mxCell>
        <mxCell id="bcauHxK4wQCXYkB9hPyb-15" value="" style="group" parent="1" vertex="1" connectable="0">
          <mxGeometry x="392" y="100" width="40" height="910" as="geometry" />
        </mxCell>
        <mxCell id="bcauHxK4wQCXYkB9hPyb-16" value="" style="html=1;points=[];perimeter=orthogonalPerimeter;" parent="bcauHxK4wQCXYkB9hPyb-15" vertex="1">
          <mxGeometry x="15" y="20" width="10" height="890" as="geometry" />
        </mxCell>
        <mxCell id="bcauHxK4wQCXYkB9hPyb-17" value="&lt;font style=&quot;font-size: 18px&quot;&gt;Order&lt;/font&gt;" style="text;html=1;strokeColor=none;fillColor=none;align=center;verticalAlign=middle;whiteSpace=wrap;rounded=0;" parent="bcauHxK4wQCXYkB9hPyb-15" vertex="1">
          <mxGeometry width="40" height="20" as="geometry" />
        </mxCell>
        <mxCell id="bcauHxK4wQCXYkB9hPyb-26" value="send" style="html=1;verticalAlign=bottom;endArrow=block;entryX=-0.1;entryY=0.145;entryDx=0;entryDy=0;entryPerimeter=0;fontSize=16;" parent="bcauHxK4wQCXYkB9hPyb-15" target="bcauHxK4wQCXYkB9hPyb-24" edge="1">
          <mxGeometry width="80" relative="1" as="geometry">
            <mxPoint x="25.000000000000114" y="150" as="sourcePoint" />
            <mxPoint x="100.00000000000011" y="150" as="targetPoint" />
          </mxGeometry>
        </mxCell>
        <mxCell id="bcauHxK4wQCXYkB9hPyb-8" value="" style="group" parent="1" vertex="1" connectable="0">
          <mxGeometry x="137" y="100" width="40" height="910" as="geometry" />
        </mxCell>
        <mxCell id="bcauHxK4wQCXYkB9hPyb-2" value="" style="html=1;points=[];perimeter=orthogonalPerimeter;" parent="bcauHxK4wQCXYkB9hPyb-8" vertex="1">
          <mxGeometry x="15" y="20" width="10" height="890" as="geometry" />
        </mxCell>
        <mxCell id="bcauHxK4wQCXYkB9hPyb-7" value="&lt;font style=&quot;font-size: 18px&quot;&gt;Customer&lt;/font&gt;" style="text;html=1;strokeColor=none;fillColor=none;align=center;verticalAlign=middle;whiteSpace=wrap;rounded=0;" parent="bcauHxK4wQCXYkB9hPyb-8" vertex="1">
          <mxGeometry width="40" height="20" as="geometry" />
        </mxCell>
        <mxCell id="bcauHxK4wQCXYkB9hPyb-9" value="" style="group" parent="1" vertex="1" connectable="0">
          <mxGeometry x="312" y="100" width="40" height="910" as="geometry" />
        </mxCell>
        <mxCell id="bcauHxK4wQCXYkB9hPyb-10" value="" style="html=1;points=[];perimeter=orthogonalPerimeter;" parent="bcauHxK4wQCXYkB9hPyb-9" vertex="1">
          <mxGeometry x="15" y="20" width="10" height="890" as="geometry" />
        </mxCell>
        <mxCell id="bcauHxK4wQCXYkB9hPyb-11" value="&lt;font style=&quot;font-size: 18px&quot;&gt;Cart&lt;/font&gt;" style="text;html=1;strokeColor=none;fillColor=none;align=center;verticalAlign=middle;whiteSpace=wrap;rounded=0;" parent="bcauHxK4wQCXYkB9hPyb-9" vertex="1">
          <mxGeometry width="40" height="20" as="geometry" />
        </mxCell>
        <mxCell id="bcauHxK4wQCXYkB9hPyb-48" value="pick up order" style="html=1;verticalAlign=bottom;endArrow=block;entryX=0.011;entryY=0.384;entryDx=0;entryDy=0;entryPerimeter=0;fontSize=15;" parent="bcauHxK4wQCXYkB9hPyb-9" target="bcauHxK4wQCXYkB9hPyb-42" edge="1">
          <mxGeometry width="80" relative="1" as="geometry">
            <mxPoint x="-150" y="362" as="sourcePoint" />
            <mxPoint x="-141.0000000000001" y="360" as="targetPoint" />
          </mxGeometry>
        </mxCell>
        <mxCell id="bcauHxK4wQCXYkB9hPyb-12" value="" style="group" parent="1" vertex="1" connectable="0">
          <mxGeometry x="222" y="100" width="40" height="910" as="geometry" />
        </mxCell>
        <mxCell id="bcauHxK4wQCXYkB9hPyb-13" value="" style="html=1;points=[];perimeter=orthogonalPerimeter;" parent="bcauHxK4wQCXYkB9hPyb-12" vertex="1">
          <mxGeometry x="15" y="20" width="10" height="890" as="geometry" />
        </mxCell>
        <mxCell id="bcauHxK4wQCXYkB9hPyb-14" value="&lt;font style=&quot;font-size: 18px&quot;&gt;Item&lt;/font&gt;" style="text;html=1;strokeColor=none;fillColor=none;align=center;verticalAlign=middle;whiteSpace=wrap;rounded=0;" parent="bcauHxK4wQCXYkB9hPyb-12" vertex="1">
          <mxGeometry width="40" height="20" as="geometry" />
        </mxCell>
        <mxCell id="bcauHxK4wQCXYkB9hPyb-19" value="&lt;font style=&quot;font-size: 15px&quot;&gt;views&lt;/font&gt;" style="html=1;verticalAlign=bottom;endArrow=block;" parent="1" edge="1">
          <mxGeometry width="80" relative="1" as="geometry">
            <mxPoint x="162" y="152" as="sourcePoint" />
            <mxPoint x="237" y="152" as="targetPoint" />
          </mxGeometry>
        </mxCell>
        <mxCell id="bcauHxK4wQCXYkB9hPyb-20" value="selects" style="html=1;verticalAlign=bottom;endArrow=block;fontSize=15;" parent="1" edge="1">
          <mxGeometry width="80" relative="1" as="geometry">
            <mxPoint x="242" y="180" as="sourcePoint" />
            <mxPoint x="327" y="180.00000000000006" as="targetPoint" />
          </mxGeometry>
        </mxCell>
        <mxCell id="bcauHxK4wQCXYkB9hPyb-21" value="submit" style="html=1;verticalAlign=bottom;endArrow=block;fontSize=16;" parent="1" edge="1">
          <mxGeometry width="80" relative="1" as="geometry">
            <mxPoint x="332" y="220.00000000000006" as="sourcePoint" />
            <mxPoint x="407" y="220.00000000000006" as="targetPoint" />
          </mxGeometry>
        </mxCell>
        <mxCell id="bcauHxK4wQCXYkB9hPyb-23" value="" style="group" parent="1" vertex="1" connectable="0">
          <mxGeometry x="482" y="100" width="40" height="910" as="geometry" />
        </mxCell>
        <mxCell id="bcauHxK4wQCXYkB9hPyb-24" value="" style="html=1;points=[];perimeter=orthogonalPerimeter;" parent="bcauHxK4wQCXYkB9hPyb-23" vertex="1">
          <mxGeometry x="15" y="20" width="10" height="890" as="geometry" />
        </mxCell>
        <mxCell id="bcauHxK4wQCXYkB9hPyb-25" value="&lt;font style=&quot;font-size: 18px&quot;&gt;Restaurant&lt;/font&gt;" style="text;html=1;strokeColor=none;fillColor=none;align=center;verticalAlign=middle;whiteSpace=wrap;rounded=0;" parent="bcauHxK4wQCXYkB9hPyb-23" vertex="1">
          <mxGeometry width="40" height="20" as="geometry" />
        </mxCell>
        <mxCell id="bcauHxK4wQCXYkB9hPyb-31" value="send" style="html=1;verticalAlign=bottom;endArrow=block;entryX=0.122;entryY=0.17;entryDx=0;entryDy=0;entryPerimeter=0;fontSize=15;" parent="bcauHxK4wQCXYkB9hPyb-23" edge="1">
          <mxGeometry width="80" relative="1" as="geometry">
            <mxPoint x="-64.99999999999989" y="180.95" as="sourcePoint" />
            <mxPoint x="105.22000000000003" y="181.30000000000007" as="targetPoint" />
          </mxGeometry>
        </mxCell>
        <mxCell id="bcauHxK4wQCXYkB9hPyb-27" value="" style="group" parent="1" vertex="1" connectable="0">
          <mxGeometry x="572" y="100" width="40" height="910" as="geometry" />
        </mxCell>
        <mxCell id="bcauHxK4wQCXYkB9hPyb-28" value="" style="html=1;points=[];perimeter=orthogonalPerimeter;" parent="bcauHxK4wQCXYkB9hPyb-27" vertex="1">
          <mxGeometry x="15" y="20" width="10" height="890" as="geometry" />
        </mxCell>
        <mxCell id="bcauHxK4wQCXYkB9hPyb-29" value="&lt;font style=&quot;font-size: 18px&quot;&gt;Deliverer&lt;/font&gt;" style="text;html=1;strokeColor=none;fillColor=none;align=center;verticalAlign=middle;whiteSpace=wrap;rounded=0;" parent="bcauHxK4wQCXYkB9hPyb-27" vertex="1">
          <mxGeometry width="40" height="20" as="geometry" />
        </mxCell>
        <mxCell id="bcauHxK4wQCXYkB9hPyb-34" value="pick up" style="html=1;verticalAlign=bottom;endArrow=block;exitX=-0.044;exitY=0.236;exitDx=0;exitDy=0;exitPerimeter=0;fontSize=15;" parent="1" source="bcauHxK4wQCXYkB9hPyb-28" target="bcauHxK4wQCXYkB9hPyb-24" edge="1">
          <mxGeometry width="80" relative="1" as="geometry">
            <mxPoint x="512.0000000000001" y="330.95" as="sourcePoint" />
            <mxPoint x="512" y="330" as="targetPoint" />
          </mxGeometry>
        </mxCell>
        <mxCell id="bcauHxK4wQCXYkB9hPyb-41" value="" style="group" parent="1" vertex="1" connectable="0">
          <mxGeometry x="662" y="100" width="40" height="910" as="geometry" />
        </mxCell>
        <mxCell id="bcauHxK4wQCXYkB9hPyb-42" value="" style="html=1;points=[];perimeter=orthogonalPerimeter;" parent="bcauHxK4wQCXYkB9hPyb-41" vertex="1">
          <mxGeometry x="15" y="20" width="10" height="890" as="geometry" />
        </mxCell>
        <mxCell id="bcauHxK4wQCXYkB9hPyb-43" value="&lt;font style=&quot;font-size: 18px&quot;&gt;Delivery Location&lt;/font&gt;" style="text;html=1;strokeColor=none;fillColor=none;align=center;verticalAlign=middle;whiteSpace=wrap;rounded=0;" parent="bcauHxK4wQCXYkB9hPyb-41" vertex="1">
          <mxGeometry y="-8" width="40" height="20" as="geometry" />
        </mxCell>
        <mxCell id="bcauHxK4wQCXYkB9hPyb-46" value="deliver" style="html=1;verticalAlign=bottom;endArrow=block;entryX=0.011;entryY=0.271;entryDx=0;entryDy=0;entryPerimeter=0;exitX=0.5;exitY=0.271;exitDx=0;exitDy=0;exitPerimeter=0;fontSize=15;" parent="1" edge="1">
          <mxGeometry width="80" relative="1" as="geometry">
            <mxPoint x="592" y="428.18999999999994" as="sourcePoint" />
            <mxPoint x="677.1100000000001" y="428.18999999999994" as="targetPoint" />
          </mxGeometry>
        </mxCell>
        <mxCell id="bcauHxK4wQCXYkB9hPyb-47" value="notification of order pick up" style="html=1;verticalAlign=bottom;endArrow=block;entryX=0.9;entryY=0.293;entryDx=0;entryDy=0;entryPerimeter=0;fontSize=15;" parent="1" target="bcauHxK4wQCXYkB9hPyb-2" edge="1">
          <mxGeometry width="80" relative="1" as="geometry">
            <mxPoint x="592" y="381" as="sourcePoint" />
            <mxPoint x="192" y="380" as="targetPoint" />
          </mxGeometry>
        </mxCell>
      </root>
    </mxGraphModel>
  </diagram>
  <diagram id="pEkApRalQnl3Gy6hSSQw" name="Ordering Process Use Case">
    <mxGraphModel dx="751" dy="403" grid="1" gridSize="10" guides="1" tooltips="1" connect="1" arrows="1" fold="1" page="1" pageScale="1" pageWidth="1100" pageHeight="850" math="0" shadow="0">
      <root>
        <mxCell id="H0ug6erNXCE1vOzzU8ad-0" />
        <mxCell id="H0ug6erNXCE1vOzzU8ad-1" parent="H0ug6erNXCE1vOzzU8ad-0" />
        <mxCell id="dbXElKxHp7-DbC87Ktjz-15" value="&lt;font style=&quot;font-size: 30px&quot;&gt;&lt;b&gt;Ordering Process Use Case&lt;/b&gt;&lt;/font&gt;" style="text;html=1;align=center;verticalAlign=middle;resizable=0;points=[];autosize=1;" parent="H0ug6erNXCE1vOzzU8ad-1" vertex="1">
          <mxGeometry x="140" y="80" width="410" height="30" as="geometry" />
        </mxCell>
        <mxCell id="dbXElKxHp7-DbC87Ktjz-4" value="" style="group" parent="H0ug6erNXCE1vOzzU8ad-1" vertex="1" connectable="0">
          <mxGeometry x="170" y="170" width="102.56410256410255" height="520" as="geometry" />
        </mxCell>
        <mxCell id="dbXElKxHp7-DbC87Ktjz-5" value="" style="html=1;points=[];perimeter=orthogonalPerimeter;" parent="dbXElKxHp7-DbC87Ktjz-4" vertex="1">
          <mxGeometry x="38.46153846153846" y="11.428571428571427" width="25.64102564102564" height="508.5714285714285" as="geometry" />
        </mxCell>
        <mxCell id="dbXElKxHp7-DbC87Ktjz-6" value="Customer" style="text;html=1;strokeColor=none;fillColor=none;align=center;verticalAlign=middle;whiteSpace=wrap;rounded=0;fontSize=20;" parent="dbXElKxHp7-DbC87Ktjz-4" vertex="1">
          <mxGeometry y="-11.43" width="102.56410256410255" height="11.428571428571427" as="geometry" />
        </mxCell>
        <mxCell id="dbXElKxHp7-DbC87Ktjz-14" value="&lt;font style=&quot;font-size: 18px&quot;&gt;enter&lt;/font&gt;" style="html=1;verticalAlign=bottom;endArrow=block;entryX=0.074;entryY=0.059;entryDx=0;entryDy=0;entryPerimeter=0;" parent="dbXElKxHp7-DbC87Ktjz-4" target="dbXElKxHp7-DbC87Ktjz-8" edge="1">
          <mxGeometry width="80" relative="1" as="geometry">
            <mxPoint x="58.97435897435897" y="42.285714285714285" as="sourcePoint" />
            <mxPoint x="341.025641025641" y="42.49142857142858" as="targetPoint" />
          </mxGeometry>
        </mxCell>
        <mxCell id="dbXElKxHp7-DbC87Ktjz-7" value="" style="group" parent="H0ug6erNXCE1vOzzU8ad-1" vertex="1" connectable="0">
          <mxGeometry x="459.7435897435897" y="170" width="102.56410256410255" height="520" as="geometry" />
        </mxCell>
        <mxCell id="dbXElKxHp7-DbC87Ktjz-8" value="" style="html=1;points=[];perimeter=orthogonalPerimeter;" parent="dbXElKxHp7-DbC87Ktjz-7" vertex="1">
          <mxGeometry x="38.46153846153846" y="11.428571428571427" width="25.64102564102564" height="508.5714285714285" as="geometry" />
        </mxCell>
        <mxCell id="dbXElKxHp7-DbC87Ktjz-13" value="&lt;font style=&quot;font-size: 18px&quot;&gt;submit payment&lt;/font&gt;" style="html=1;verticalAlign=bottom;endArrow=block;entryX=-0.009;entryY=0.337;entryDx=0;entryDy=0;entryPerimeter=0;" parent="H0ug6erNXCE1vOzzU8ad-1" target="dbXElKxHp7-DbC87Ktjz-1" edge="1">
          <mxGeometry width="80" relative="1" as="geometry">
            <mxPoint x="234.1025641025641" y="354.51612903225805" as="sourcePoint" />
            <mxPoint x="818.7179487179486" y="354.51612903225805" as="targetPoint" />
          </mxGeometry>
        </mxCell>
        <mxCell id="dbXElKxHp7-DbC87Ktjz-9" value="Payment&lt;br style=&quot;font-size: 20px;&quot;&gt;Method" style="text;html=1;strokeColor=none;fillColor=none;align=center;verticalAlign=middle;whiteSpace=wrap;rounded=0;fontSize=20;" parent="H0ug6erNXCE1vOzzU8ad-1" vertex="1">
          <mxGeometry x="440.90000000000003" y="150" width="140.26" height="11.43" as="geometry" />
        </mxCell>
        <mxCell id="dbXElKxHp7-DbC87Ktjz-1" value="" style="html=1;points=[];perimeter=orthogonalPerimeter;" parent="H0ug6erNXCE1vOzzU8ad-1" vertex="1">
          <mxGeometry x="805.8974358974359" y="181.42857142857142" width="25.64102564102564" height="508.5714285714286" as="geometry" />
        </mxCell>
        <mxCell id="dbXElKxHp7-DbC87Ktjz-2" value="Cart Total" style="text;html=1;strokeColor=none;fillColor=none;align=center;verticalAlign=middle;whiteSpace=wrap;rounded=0;fontSize=20;" parent="H0ug6erNXCE1vOzzU8ad-1" vertex="1">
          <mxGeometry x="767.4358974358975" y="161.43285714285713" width="102.56410256410255" height="11.428571428571427" as="geometry" />
        </mxCell>
      </root>
    </mxGraphModel>
  </diagram>
</mxfile>
